<svg width="24" height="24" viewBox="0 0 24 24" fill="none" xmlns="http://www.w3.org/2000/svg">
<path d="M14.3198 10C13.8431 10 13.4481 9.65366 13.2448 9.2225C12.4777 7.59575 10.4993 6.90691 8.79881 7.69666C8.2897 7.9331 7.6496 7.89022 7.29621 7.45409L6.89585 6.96001C6.5558 6.54036 6.60708 5.91712 7.06652 5.63313C10.4612 3.53479 15.0209 5.43375 15.7452 9.00547C15.855 9.54674 15.3963 10 14.844 10H14.3198Z" fill="#232C49"/>
<path fill-rule="evenodd" clip-rule="evenodd" d="M15.8261 18.8748C14.1762 19.9485 12.2447 20.5256 10.2635 20.526C4.60448 20.526 0 15.9217 0 10.263C0 4.60423 4.60448 0 10.2635 0C15.9226 0 20.5271 4.60423 20.5271 10.263C20.5266 12.2445 19.9492 14.1763 18.8749 15.8264C18.5991 16.25 18.6288 16.8152 18.9863 17.1725L23.2928 21.4789C23.6834 21.8694 23.6834 22.5026 23.2928 22.8931L22.893 23.293C22.5025 23.6834 21.8694 23.6835 21.4788 23.293L17.172 18.9863C16.8147 18.629 16.2496 18.5992 15.8261 18.8748ZM17.9612 10.263C17.9612 6.01796 14.5088 2.56575 10.2635 2.56575C6.01828 2.56575 2.56588 6.01796 2.56588 10.263C2.56588 14.508 6.01828 17.9602 10.2635 17.9602C14.5088 17.9602 17.9612 14.508 17.9612 10.263Z" fill="#232C49"/>
</svg>
